<svg version="1.1" id="Layer_1" xmlns="http://www.w3.org/2000/svg" xmlns:xlink="http://www.w3.org/1999/xlink" x="0px" y="0px"
	 width="100%" viewBox="0 0 512 477" enable-background="new 0 0 512 477" xml:space="preserve">
<path fill="#28A8EA" opacity="1.000000" stroke="none" 
	d="
M497.000000,478.000000 
	C376.977356,478.000000 256.954712,478.000000 136.786163,477.729919 
	C135.028641,476.412720 133.418747,475.362885 131.805069,474.318939 
	C125.528320,470.258209 120.305580,465.053955 120.140198,457.267365 
	C119.777702,440.199768 120.107635,423.117493 120.613258,406.026245 
	C128.236084,406.003265 135.400452,405.988922 142.564835,405.988312 
	C178.886841,405.985107 215.208847,406.002563 251.530823,405.973267 
	C261.342407,405.965332 268.993561,401.105408 272.349548,392.919098 
	C273.077789,392.184204 273.571289,391.610565 274.420471,391.014008 
	C280.740112,388.541931 284.743958,383.871307 285.630310,377.849609 
	C286.825500,369.730103 286.558990,361.399841 287.030365,353.166321 
	C287.149445,351.085663 287.688446,349.029022 288.362671,347.076538 
	C291.278870,348.650085 293.852020,350.135651 296.457703,351.561829 
	C304.254913,355.829376 312.064819,360.073639 320.004639,364.627563 
	C325.971069,368.432373 331.772827,371.987457 337.638977,375.432831 
	C383.123352,402.147156 428.634338,428.816101 474.101715,455.559265 
	C483.837036,461.285431 493.428009,467.256958 502.898315,473.422638 
	C500.807404,475.153198 498.903717,476.576599 497.000000,478.000000 
z"/>
<path fill="#0364B8" opacity="1.000000" stroke="none" 
	d="
M156.000000,1.000000 
	C262.688110,1.000000 369.376190,1.000000 476.326233,1.326842 
	C484.025665,6.716876 489.711151,13.204258 489.888428,22.557619 
	C490.202087,39.109764 489.864075,55.674263 489.342224,72.233459 
	C473.270966,72.245293 457.656219,72.234329 442.041565,72.274963 
	C422.111938,72.326828 402.182465,72.420372 381.772247,72.397194 
	C341.939362,72.272583 302.587128,72.246719 262.746887,72.163216 
	C222.570358,72.081039 182.881821,72.056496 143.116760,71.566849 
	C143.026260,55.834385 142.901230,40.565952 143.049759,25.300180 
	C143.114502,18.645540 144.787064,12.340237 149.463989,7.268254 
	C151.506470,5.053254 153.813248,3.081964 156.000000,1.000000 
z"/>
<path fill="#137ED7" opacity="1.000000" stroke="none" 
	d="
M0.999997,301.000000 
	C1.000000,241.312439 1.000000,181.624878 1.277119,121.778748 
	C2.006608,121.159325 2.603865,120.774055 2.889642,120.226295 
	C7.260467,111.848381 14.032223,107.902489 23.591219,107.932480 
	C63.365856,108.057274 103.141167,107.966553 143.389862,107.973099 
	C177.648727,108.289055 211.433929,108.586800 245.577316,108.915207 
	C255.350952,110.961723 259.932892,117.770477 262.944122,126.559967 
	C262.905914,129.664734 262.886810,132.327408 262.527710,135.127228 
	C261.454620,138.743454 261.017151,142.321426 259.896637,145.670898 
	C258.969482,148.442398 257.918854,152.077286 255.750427,153.384094 
	C239.989548,162.882187 223.855896,171.759186 208.008011,181.116882 
	C202.377304,184.441620 197.212799,188.555878 191.552094,192.115753 
	C176.565582,169.893616 155.268112,161.574692 129.624298,162.166702 
	C98.224167,162.891602 74.000572,181.180359 64.884995,211.227768 
	C59.280552,229.701569 59.354126,248.229782 64.218819,266.855652 
	C50.070946,274.612946 36.359585,282.366150 22.541103,289.923462 
	C15.459565,293.796326 8.186502,297.319031 0.999997,301.000000 
z"/>
<path fill="#1490DF" opacity="1.000000" stroke="none" 
	d="
M513.000000,253.000000 
	C513.000000,318.354218 513.000000,383.708466 512.653992,449.469238 
	C491.619354,437.855072 470.922760,425.847992 450.244293,413.809814 
	C429.416901,401.684875 408.581116,389.573944 387.799225,377.371338 
	C373.478760,368.962708 359.243896,360.408386 345.187531,351.658478 
	C357.591156,344.544159 369.778076,337.690521 382.286987,330.727081 
	C387.535980,327.844147 392.465881,325.076080 397.389496,322.296967 
	C418.243652,310.526123 439.095947,298.751984 460.278412,286.855621 
	C470.061432,281.215240 479.514954,275.698303 489.332062,270.125610 
	C493.885315,267.780670 498.057129,265.458038 502.269440,263.211212 
	C506.799927,260.794708 511.217865,258.290924 513.000000,253.000000 
z"/>
<path fill="#000000" opacity="1.000000" stroke="none" 
	d="
M142.916229,107.954895 
	C103.141167,107.966553 63.365856,108.057274 23.591219,107.932480 
	C14.032223,107.902489 7.260467,111.848381 2.889642,120.226295 
	C2.603865,120.774055 2.006608,121.159325 1.277119,121.310089 
	C1.000000,81.063721 1.000000,41.127434 1.000000,1.000000 
	C52.354069,1.000000 103.708374,1.000000 155.531342,1.000000 
	C153.813248,3.081964 151.506470,5.053254 149.463989,7.268254 
	C144.787064,12.340237 143.114502,18.645540 143.049759,25.300180 
	C142.901230,40.565952 143.026260,55.834385 143.045959,72.028793 
	C143.088181,80.630066 143.124710,88.304283 143.095154,96.435867 
	C142.991470,100.580452 142.953857,104.267677 142.916229,107.954895 
z"/>
<path fill="#000000" opacity="1.000000" stroke="none" 
	d="
M120.154816,406.041199 
	C120.107635,423.117493 119.777702,440.199768 120.140198,457.267365 
	C120.305580,465.053955 125.528320,470.258209 131.805069,474.318939 
	C133.418747,475.362885 135.028641,476.412720 136.320129,477.729919 
	C91.077324,478.000000 46.154644,478.000000 1.000000,478.000000 
	C1.000000,438.312744 1.000000,398.625031 1.289062,358.175293 
	C4.494514,360.552734 6.980143,364.341248 10.451252,366.644928 
	C13.766575,368.845215 18.107857,369.499634 22.462500,370.902405 
	C46.950096,370.924438 70.973328,370.877716 95.460762,370.901093 
	C103.940979,371.000610 111.956993,371.030060 119.977478,371.515228 
	C120.033707,375.338440 120.085472,378.705902 120.082611,382.527039 
	C120.072983,386.659973 120.117973,390.339325 120.096985,394.474670 
	C120.072281,398.634216 120.113548,402.337708 120.154816,406.041199 
z"/>
<path fill="#000000" opacity="1.000000" stroke="none" 
	d="
M489.798767,72.233589 
	C489.864075,55.674263 490.202087,39.109764 489.888428,22.557619 
	C489.711151,13.204258 484.025665,6.716876 476.794067,1.326842 
	C488.981171,1.000000 500.962311,1.000000 513.000000,1.000000 
	C513.000000,81.687553 513.000000,162.375122 512.645325,243.568222 
	C504.861572,239.366653 497.432495,234.659531 490.002258,229.489151 
	C489.940399,212.659744 489.879730,196.293594 489.893677,179.468658 
	C489.979095,168.696930 490.016235,158.383926 489.995331,148.071075 
	C489.944092,122.791878 489.865997,97.512749 489.798767,72.233589 
z"/>
<path fill="#0F77D3" opacity="1.000000" stroke="none" 
	d="
M0.999997,301.468658 
	C8.186502,297.319031 15.459565,293.796326 22.541103,289.923462 
	C36.359585,282.366150 50.070946,274.612946 64.375473,267.161713 
	C69.300201,282.412781 78.554825,293.869354 90.776520,303.236084 
	C69.495255,315.755768 48.508835,328.142944 27.355007,340.237305 
	C18.757475,345.152771 9.795915,349.431519 0.999993,354.000000 
	C1.000000,336.645782 1.000000,319.291534 0.999997,301.468658 
z"/>
<path fill="#0E74D2" opacity="1.000000" stroke="none" 
	d="
M0.999993,354.399963 
	C9.795915,349.431519 18.757475,345.152771 27.355007,340.237305 
	C48.508835,328.142944 69.495255,315.755768 91.121117,303.303101 
	C95.999863,305.243652 100.209137,307.604553 104.640701,309.424042 
	C109.010918,311.218414 113.606163,312.464661 117.770683,314.101318 
	C115.452240,315.092407 113.351791,315.735626 111.496483,316.804382 
	C83.452232,332.959290 55.417904,349.131927 27.464430,365.442963 
	C25.322977,366.692505 23.805613,369.011627 21.998150,370.833618 
	C18.107857,369.499634 13.766575,368.845215 10.451252,366.644928 
	C6.980143,364.341248 4.494514,360.552734 1.289062,357.706604 
	C1.000000,356.933319 1.000000,355.866669 0.999993,354.399963 
z"/>
<path fill="#1389D5" opacity="1.000000" stroke="none" 
	d="
M344.970795,351.919159 
	C359.243896,360.408386 373.478760,368.962708 387.799225,377.371338 
	C408.581116,389.573944 429.416901,401.684875 450.244293,413.809814 
	C470.922760,425.847992 491.619354,437.855072 512.653992,449.937897 
	C513.000000,454.024536 513.000000,458.049103 512.754028,462.224731 
	C511.687103,463.296600 510.866211,464.217346 510.016663,464.771149 
	C508.426056,462.823029 507.115875,460.812958 505.263916,459.725952 
	C482.448334,446.334656 459.533173,433.113190 436.684143,419.778564 
	C403.489380,400.406158 370.319244,380.991394 337.183044,361.519043 
	C335.892761,360.760834 335.062439,359.219879 334.302734,357.854614 
	C338.048676,355.750092 341.509735,353.834625 344.970795,351.919159 
z"/>
<path fill="#0A2969" opacity="1.000000" stroke="none" 
	d="
M490.003418,229.952423 
	C497.432495,234.659531 504.861572,239.366653 512.645325,244.036880 
	C513.000000,246.700012 513.000000,249.400024 513.000000,252.550018 
	C511.217865,258.290924 506.799927,260.794708 502.269440,263.211212 
	C498.057129,265.458038 493.885315,267.780670 489.356873,269.646057 
	C488.937286,265.428864 488.856476,261.635498 488.869232,257.392700 
	C489.008789,252.817566 488.959778,248.688004 489.125397,244.567078 
	C489.321320,239.691650 489.702515,234.823639 490.003418,229.952423 
z"/>
<path fill="#000000" opacity="1.000000" stroke="none" 
	d="
M510.045288,465.138123 
	C510.866211,464.217346 511.687103,463.296600 512.754028,462.687927 
	C513.000000,467.927460 513.000000,472.854950 513.000000,478.000000 
	C507.982178,478.000000 502.962311,478.000000 497.471191,478.000000 
	C498.903717,476.576599 500.807404,475.153198 503.203278,473.283020 
	C505.812042,470.270203 507.928680,467.704163 510.045288,465.138123 
z"/>
<path fill="#117DC1" opacity="1.000000" stroke="none" 
	d="
M510.016632,464.771118 
	C507.928680,467.704163 505.812042,470.270203 503.390442,472.975891 
	C493.428009,467.256958 483.837036,461.285431 474.101715,455.559265 
	C428.634338,428.816101 383.123352,402.147156 337.638977,375.432831 
	C331.772827,371.987457 325.971069,368.432373 320.324463,364.401703 
	C325.012207,361.931396 329.514984,359.987518 334.017792,358.043640 
	C335.062439,359.219879 335.892761,360.760834 337.183044,361.519043 
	C370.319244,380.991394 403.489380,400.406158 436.684143,419.778564 
	C459.533173,433.113190 482.448334,446.334656 505.263916,459.725952 
	C507.115875,460.812958 508.426056,462.823029 510.016632,464.771118 
z"/>
<path fill="#1D7AA9" opacity="1.000000" stroke="none" 
	d="
M120.162964,394.018646 
	C120.117973,390.339325 120.072983,386.659973 120.541405,382.504395 
	C163.673370,381.965729 206.291931,381.903320 249.364441,381.890320 
	C258.563354,382.943909 265.306122,379.390839 270.700592,372.766968 
	C272.033447,371.130341 273.369659,369.496460 274.777283,368.333313 
	C274.588409,376.215851 274.326599,383.626404 274.064789,391.036926 
	C273.571289,391.610565 273.077789,392.184204 271.916840,392.915710 
	C267.956207,393.382385 264.663391,393.955688 261.369781,393.960205 
	C214.300919,394.024750 167.231918,394.012421 120.162964,394.018646 
z"/>
<path fill="#2086BC" opacity="1.000000" stroke="none" 
	d="
M120.096985,394.474670 
	C167.231918,394.012421 214.300919,394.024750 261.369781,393.960205 
	C264.663391,393.955688 267.956207,393.382385 271.682098,393.076965 
	C268.993561,401.105408 261.342407,405.965332 251.530823,405.973267 
	C215.208847,406.002563 178.886841,405.985107 142.564835,405.988312 
	C135.400452,405.988922 128.236084,406.003265 120.613258,406.026245 
	C120.113548,402.337708 120.072281,398.634216 120.096985,394.474670 
z"/>
<path fill="#064791" opacity="1.000000" stroke="none" 
	d="
M334.302734,357.854614 
	C329.514984,359.987518 325.012207,361.931396 320.189575,364.101166 
	C312.064819,360.073639 304.254913,355.829376 296.457703,351.561829 
	C293.852020,350.135651 291.278870,348.650085 288.180054,346.854797 
	C287.060059,346.061157 286.450806,345.604370 286.111511,344.816528 
	C286.598236,340.639221 286.815063,336.792938 287.380493,333.016724 
	C297.395142,338.549438 306.965210,344.196106 316.804352,349.326813 
	C318.892273,350.415558 322.454620,350.580109 324.495422,349.531403 
	C334.074890,344.608734 343.329041,339.057373 352.759705,333.839539 
	C362.466034,328.469208 372.242065,323.224945 381.991272,318.392578 
	C381.984955,322.852081 381.974945,326.844482 381.964966,330.836884 
	C369.778076,337.690521 357.591156,344.544159 345.187531,351.658478 
	C341.509735,353.834625 338.048676,355.750092 334.302734,357.854614 
z"/>
<path fill="#2498D3" opacity="1.000000" stroke="none" 
	d="
M285.841583,345.147583 
	C286.450806,345.604370 287.060059,346.061157 287.851898,346.739655 
	C287.688446,349.029022 287.149445,351.085663 287.030365,353.166321 
	C286.558990,361.399841 286.825500,369.730103 285.630310,377.849609 
	C284.743958,383.871307 280.740112,388.541931 274.420471,391.014008 
	C274.326599,383.626404 274.588409,376.215851 274.823853,367.878601 
	C274.862213,357.899292 274.926941,348.846741 275.348999,339.869263 
	C279.084747,341.678711 282.463165,343.413147 285.841583,345.147583 
z"/>
<path fill="#50D9FF" opacity="1.000000" stroke="none" 
	d="
M489.342224,72.233459 
	C489.865997,97.512749 489.944092,122.791878 489.995331,148.071075 
	C490.016235,158.383926 489.979095,168.696930 489.436462,179.471008 
	C453.343689,179.870163 417.782837,179.808167 382.168518,179.296417 
	C382.076691,157.873657 381.997650,136.900650 382.014008,115.927696 
	C382.025299,101.450394 382.168579,86.973198 382.252899,72.495941 
	C402.182465,72.420372 422.111938,72.326828 442.041565,72.274963 
	C457.656219,72.234329 473.270966,72.245293 489.342224,72.233459 
z"/>
<path fill="#28A8EA" opacity="1.000000" stroke="none" 
	d="
M381.772247,72.397202 
	C382.168579,86.973198 382.025299,101.450394 382.014008,115.927696 
	C381.997650,136.900650 382.076691,157.873657 382.100342,179.374390 
	C382.085602,179.902115 381.947601,180.051361 381.485779,180.012299 
	C376.050415,179.960037 371.076904,179.947235 366.103394,179.933563 
	C339.746033,179.861115 313.388641,179.788467 287.024231,179.278076 
	C287.010559,159.517502 287.022766,140.194687 286.991272,120.871948 
	C286.966675,105.767876 278.151123,96.627205 263.023254,95.990692 
	C262.993256,96.004776 262.933105,96.032677 262.953064,95.562378 
	C263.060303,87.468330 263.147614,79.844597 263.234894,72.220856 
	C302.587128,72.246719 341.939362,72.272583 381.772247,72.397202 
z"/>
<path fill="#027AD4" opacity="1.000000" stroke="none" 
	d="
M262.746887,72.163223 
	C263.147614,79.844597 263.060303,87.468330 262.491211,95.552856 
	C222.393326,96.001923 182.777267,95.990204 143.161224,95.978493 
	C143.124710,88.304283 143.088181,80.630066 143.122467,72.493904 
	C182.881821,72.056496 222.570358,72.081039 262.746887,72.163223 
z"/>
<path fill="#FDFEFF" opacity="1.000000" stroke="none" 
	d="
M118.102692,313.951355 
	C113.606163,312.464661 109.010918,311.218414 104.640701,309.424042 
	C100.209137,307.604553 95.999863,305.243652 91.348648,303.052856 
	C78.554825,293.869354 69.300201,282.412781 64.767624,267.076477 
	C59.354126,248.229782 59.280552,229.701569 64.884995,211.227768 
	C74.000572,181.180359 98.224167,162.891602 129.624298,162.166702 
	C155.268112,161.574692 176.565582,169.893616 191.629089,192.452332 
	C194.329788,198.250534 196.955612,203.412476 198.953232,208.807037 
	C203.648987,221.487930 203.307327,234.762100 202.841980,248.367889 
	C202.125793,251.839722 201.694275,254.972336 200.992508,258.043213 
	C194.426132,286.777405 177.481033,305.512085 148.382095,312.486725 
	C138.381378,314.883789 128.214066,313.840179 118.102692,313.951355 
M109.781891,194.220917 
	C105.564842,199.292847 100.067612,203.766388 97.365776,209.546585 
	C88.522797,228.464859 88.396576,248.094131 97.167801,267.048401 
	C104.591972,283.091766 118.053688,290.000244 135.710175,289.030518 
	C150.625565,288.211334 163.654678,278.477325 168.918915,263.520721 
	C174.397797,247.954254 174.409363,232.176392 169.898132,216.391006 
	C162.128098,189.202698 134.319168,178.694489 109.781891,194.220917 
z"/>
<path fill="#1077D3" opacity="1.000000" stroke="none" 
	d="
M203.001282,248.000000 
	C203.307327,234.762100 203.648987,221.487930 198.953232,208.807037 
	C196.955612,203.412476 194.329788,198.250534 191.912476,192.646301 
	C197.212799,188.555878 202.377304,184.441620 208.008011,181.116882 
	C223.855896,171.759186 239.989548,162.882187 255.750427,153.384094 
	C257.918854,152.077286 258.969482,148.442398 259.896637,145.670898 
	C261.017151,142.321426 261.454620,138.743454 262.570496,135.595367 
	C262.998047,150.618317 263.042816,165.310272 263.054138,180.470459 
	C262.960144,190.289062 262.899628,199.639450 262.520050,209.110657 
	C260.112701,215.190277 255.843994,218.787201 250.260788,221.616623 
	C242.882538,225.355698 235.978043,230.017181 228.748169,234.064713 
	C220.233887,238.831299 211.589340,243.365204 203.001282,248.000000 
z"/>
<path fill="#006CBF" opacity="1.000000" stroke="none" 
	d="
M143.095154,96.435867 
	C182.777267,95.990204 222.393326,96.001923 262.471252,96.023155 
	C262.933105,96.032677 262.993256,96.004776 263.003601,96.457802 
	C262.953247,101.321678 262.892548,105.732536 262.459595,110.051788 
	C256.464600,109.601639 250.841873,109.243095 245.219147,108.884552 
	C211.433929,108.586800 177.648727,108.289055 143.389862,107.973099 
	C142.953857,104.267677 142.991470,100.580452 143.095154,96.435867 
z"/>
<path fill="#176288" opacity="1.000000" stroke="none" 
	d="
M263.087555,180.002213 
	C263.042816,165.310272 262.998047,150.618317 262.910492,135.458221 
	C262.886810,132.327408 262.905914,129.664734 262.947968,126.081154 
	C262.997711,120.422935 263.024536,115.685631 263.362061,111.080063 
	C271.279297,115.605789 274.951172,122.263474 274.961151,130.978943 
	C274.979828,147.304169 274.963409,163.629440 274.505493,179.963745 
	C270.395447,179.982620 266.741516,179.992416 263.087555,180.002213 
z"/>
<path fill="#01487F" opacity="1.000000" stroke="none" 
	d="
M263.051361,110.948326 
	C263.024536,115.685631 262.997711,120.422935 262.967041,125.639053 
	C259.932892,117.770477 255.350952,110.961723 245.577316,108.915207 
	C250.841873,109.243095 256.464600,109.601639 262.512665,110.253311 
	C262.938019,110.546440 263.051361,110.948326 263.051361,110.948326 
z"/>
<path fill="#06519F" opacity="1.000000" stroke="none" 
	d="
M382.286987,330.727081 
	C381.974945,326.844482 381.984955,322.852081 381.992737,318.145599 
	C381.990540,317.431519 382.002747,316.935974 382.330139,316.822906 
	C396.303406,309.119720 409.983582,301.590210 423.573944,293.902008 
	C427.573273,291.639557 431.318390,288.927795 435.544189,286.366699 
	C436.873169,286.158234 437.837952,286.005035 439.282104,285.892151 
	C446.490631,286.281311 453.219788,286.630188 459.948944,286.979065 
	C439.095947,298.751984 418.243652,310.526123 397.389496,322.296967 
	C392.465881,325.076080 387.535980,327.844147 382.286987,330.727081 
z"/>
<path fill="#1969AA" opacity="1.000000" stroke="none" 
	d="
M460.278412,286.855621 
	C453.219788,286.630188 446.490631,286.281311 439.507874,285.634491 
	C444.851715,282.110413 450.401428,278.797913 456.056702,275.676605 
	C466.931427,269.674561 477.865936,263.780792 488.775635,257.842133 
	C488.856476,261.635498 488.937286,265.428864 488.993286,269.701782 
	C479.514954,275.698303 470.061432,281.215240 460.278412,286.855621 
z"/>
<path fill="#0C6ACD" opacity="1.000000" stroke="none" 
	d="
M119.973015,371.059509 
	C111.956993,371.030060 103.940979,371.000610 95.465408,370.529419 
	C96.170784,368.471100 96.981194,366.248047 98.553749,365.328766 
	C122.533455,351.310669 146.610977,337.459839 170.669357,323.576355 
	C198.472198,307.531952 226.265823,291.471436 254.098129,275.478302 
	C258.011688,273.229462 261.509796,270.959808 261.124451,265.633453 
	C261.064026,264.798065 262.243103,263.872986 262.897888,263.456848 
	C263.009399,271.293304 263.072083,278.662201 263.086578,286.495239 
	C263.066528,297.661652 263.094635,308.364014 263.070007,319.522736 
	C263.060150,324.280121 263.103088,328.581116 263.102417,333.356018 
	C262.735779,340.579529 262.412720,347.329132 262.003510,354.423767 
	C257.980194,365.191040 250.380127,370.055298 239.304321,370.039764 
	C201.590195,369.986877 163.875900,370.014526 126.161804,370.080933 
	C124.098305,370.084564 122.035919,370.718811 119.973015,371.059509 
z"/>
<path fill="#0E71D0" opacity="1.000000" stroke="none" 
	d="
M262.849030,262.989349 
	C262.243103,263.872986 261.064026,264.798065 261.124451,265.633453 
	C261.509796,270.959808 258.011688,273.229462 254.098129,275.478302 
	C226.265823,291.471436 198.472198,307.531952 170.669357,323.576355 
	C146.610977,337.459839 122.533455,351.310669 98.553749,365.328766 
	C96.981194,366.248047 96.170784,368.471100 95.001213,370.459351 
	C70.973328,370.877716 46.950096,370.924438 22.462509,370.902405 
	C23.805613,369.011627 25.322977,366.692505 27.464430,365.442963 
	C55.417904,349.131927 83.452232,332.959290 111.496483,316.804382 
	C113.351791,315.735626 115.452240,315.092407 117.770691,314.101318 
	C128.214066,313.840179 138.381378,314.883789 148.382095,312.486725 
	C177.481033,305.512085 194.426132,286.777405 200.992508,258.043213 
	C201.694275,254.972336 202.125793,251.839722 202.841980,248.367874 
	C211.589340,243.365204 220.233887,238.831299 228.748169,234.064713 
	C235.978043,230.017181 242.882538,225.355698 250.260788,221.616623 
	C255.843994,218.787201 260.112701,215.190277 262.572144,209.577972 
	C262.911865,227.612732 262.880432,245.301041 262.849030,262.989349 
z"/>
<path fill="#124E6D" opacity="1.000000" stroke="none" 
	d="
M119.977478,371.515198 
	C122.035919,370.718811 124.098305,370.084564 126.161804,370.080933 
	C163.875900,370.014526 201.590195,369.986877 239.304321,370.039764 
	C250.380127,370.055298 257.980194,365.191040 262.236755,354.744080 
	C264.269196,365.254974 260.987061,373.545654 251.672516,379.205658 
	C250.610291,379.851135 249.824478,380.951477 248.910492,381.840881 
	C206.291931,381.903320 163.673370,381.965729 120.596024,382.050781 
	C120.085472,378.705902 120.033707,375.338440 119.977478,371.515198 
z"/>
<path fill="#28A8EA" opacity="1.000000" stroke="none" 
	d="
M488.869202,257.392700 
	C477.865936,263.780792 466.931427,269.674561 456.056702,275.676605 
	C450.401428,278.797913 444.851715,282.110413 439.028503,285.594177 
	C437.837952,286.005035 436.873169,286.158234 435.070618,286.249756 
	C416.818176,286.132385 399.403503,286.076721 381.994843,286.009583 
	C382.000854,285.998108 381.977295,286.009857 381.984985,285.540344 
	C381.977661,250.064362 381.962616,215.057861 381.947601,180.051361 
	C381.947601,180.051361 382.085602,179.902115 382.153778,179.824158 
	C417.782837,179.808167 453.343689,179.870163 489.361816,179.929810 
	C489.879730,196.293594 489.940399,212.659744 490.002258,229.489151 
	C489.702515,234.823639 489.321320,239.691650 489.125397,244.567078 
	C488.959778,248.688004 489.008789,252.817566 488.869202,257.392700 
z"/>
<path fill="#176287" opacity="1.000000" stroke="none" 
	d="
M249.364456,381.890289 
	C249.824478,380.951477 250.610291,379.851135 251.672516,379.205658 
	C260.987061,373.545654 264.269196,365.254974 262.322876,354.399078 
	C262.412720,347.329132 262.735779,340.579529 263.437378,333.446716 
	C267.532257,334.984467 271.248657,336.905396 274.980103,339.068085 
	C274.995209,339.309814 274.991699,339.794189 274.991699,339.794189 
	C274.926941,348.846741 274.862213,357.899292 274.750885,367.406555 
	C273.369659,369.496460 272.033447,371.130341 270.700592,372.766968 
	C265.306122,379.390839 258.563354,382.943909 249.364456,381.890289 
z"/>
<path fill="#0364B8" opacity="1.000000" stroke="none" 
	d="
M382.002747,316.935974 
	C382.002747,316.935974 381.990540,317.431519 381.989075,317.678528 
	C372.242065,323.224945 362.466034,328.469208 352.759705,333.839539 
	C343.329041,339.057373 334.074890,344.608734 324.495422,349.531403 
	C322.454620,350.580109 318.892273,350.415558 316.804352,349.326813 
	C306.965210,344.196106 297.395142,338.549438 287.355072,332.798950 
	C286.981049,332.511108 286.942383,332.073425 286.959839,331.597290 
	C286.980499,316.086670 286.983643,301.052185 287.456268,286.013489 
	C319.276276,286.009460 350.626770,286.009674 381.977295,286.009857 
	C381.977295,286.009857 382.000854,285.998108 381.997009,286.476044 
	C381.996368,296.947968 381.999542,306.941986 382.002747,316.935974 
z"/>
<path fill="#054083" opacity="1.000000" stroke="none" 
	d="
M286.942383,332.073425 
	C286.942383,332.073425 286.981049,332.511108 287.006470,332.728882 
	C286.815063,336.792938 286.598236,340.639221 286.111511,344.816528 
	C282.463165,343.413147 279.084747,341.678711 275.348999,339.869263 
	C274.991699,339.794189 274.995209,339.309814 274.989929,338.620728 
	C275.010284,333.940094 275.035919,329.948547 275.400085,326.036560 
	C279.473206,328.101929 283.207794,330.087677 286.942383,332.073425 
z"/>
<path fill="#0078D4" opacity="1.000000" stroke="none" 
	d="
M381.984985,285.540344 
	C350.626770,286.009674 319.276276,286.009460 287.461609,286.006104 
	C286.997498,286.002899 287.005219,285.993774 287.003082,285.525726 
	C286.998444,250.043869 286.995941,215.030060 287.000061,179.940796 
	C287.006653,179.865341 287.031281,179.715881 287.031281,179.715881 
	C313.388641,179.788467 339.746033,179.861115 366.103394,179.933563 
	C371.076904,179.947235 376.050415,179.960037 381.485779,180.012299 
	C381.962616,215.057861 381.977661,250.064362 381.984985,285.540344 
z"/>
<path fill="#2398D4" opacity="1.000000" stroke="none" 
	d="
M263.362061,111.080063 
	C263.051361,110.948326 262.938019,110.546440 262.884949,110.344910 
	C262.892548,105.732536 262.953247,101.321678 263.033630,96.443718 
	C278.151123,96.627205 286.966675,105.767876 286.991272,120.871948 
	C287.022766,140.194687 287.010559,159.517502 287.024231,179.278076 
	C287.031281,179.715881 287.006653,179.865341 286.541443,179.918945 
	C282.423950,179.953430 278.771637,179.934296 275.079010,179.921448 
	C275.038666,179.927704 274.961609,179.954681 274.961609,179.954681 
	C274.963409,163.629440 274.979828,147.304169 274.961151,130.978943 
	C274.951172,122.263474 271.279297,115.605789 263.362061,111.080063 
z"/>
<path fill="#117AD5" opacity="1.000000" stroke="none" 
	d="
M110.086632,194.025665 
	C134.319168,178.694489 162.128098,189.202698 169.898132,216.391006 
	C174.409363,232.176392 174.397797,247.954254 168.918915,263.520721 
	C163.654678,278.477325 150.625565,288.211334 135.710175,289.030518 
	C118.053688,290.000244 104.591972,283.091766 97.167801,267.048401 
	C88.396576,248.094131 88.522797,228.464859 97.365776,209.546585 
	C100.067612,203.766388 105.564842,199.292847 110.086632,194.025665 
z"/>
<path fill="#00457B" opacity="1.000000" stroke="none" 
	d="
M262.897888,263.456848 
	C262.880432,245.301041 262.911865,227.612732 262.891205,209.457123 
	C262.899628,199.639450 262.960144,190.289062 263.054138,180.470459 
	C266.741516,179.992416 270.395447,179.982620 274.505493,179.963745 
	C274.961609,179.954681 275.038666,179.927704 275.034607,180.396301 
	C275.061768,215.910965 275.092957,250.957031 275.039978,285.998077 
	C274.955780,285.993073 274.787109,285.995636 274.340881,285.997650 
	C270.308014,286.010132 266.721405,286.020630 263.134766,286.031128 
	C263.072083,278.662201 263.009399,271.293304 262.897888,263.456848 
z"/>
<path fill="#0278D3" opacity="1.000000" stroke="none" 
	d="
M382.330139,316.822906 
	C381.999542,306.941986 381.996368,296.947968 381.990997,286.487488 
	C399.403503,286.076721 416.818176,286.132385 434.706421,286.304993 
	C431.318390,288.927795 427.573273,291.639557 423.573944,293.902008 
	C409.983582,301.590210 396.303406,309.119720 382.330139,316.822906 
z"/>
<path fill="#023A6A" opacity="1.000000" stroke="none" 
	d="
M263.086578,286.495239 
	C266.721405,286.020630 270.308014,286.010132 274.405304,286.463806 
	C274.881470,299.640839 274.846954,312.353760 274.472992,324.988220 
	C270.463287,322.961945 266.793030,321.014130 263.122772,319.066345 
	C263.094635,308.364014 263.066528,297.661652 263.086578,286.495239 
z"/>
<path fill="#032954" opacity="1.000000" stroke="none" 
	d="
M263.070007,319.522736 
	C266.793030,321.014130 270.463287,322.961945 274.535889,325.210632 
	C274.938232,325.511505 275.061523,325.956970 275.061523,325.956970 
	C275.035919,329.948547 275.010284,333.940094 274.974854,338.379028 
	C271.248657,336.905396 267.532257,334.984467 263.480957,332.972809 
	C263.103088,328.581116 263.060150,324.280121 263.070007,319.522736 
z"/>
<path fill="#035AA6" opacity="1.000000" stroke="none" 
	d="
M275.400085,326.036560 
	C275.061523,325.956970 274.938232,325.511505 274.875336,325.289093 
	C274.846954,312.353760 274.881470,299.640839 274.851532,286.461792 
	C274.787109,285.995636 274.955780,285.993073 275.487701,285.996979 
	C279.681488,285.998505 283.343353,285.996124 287.005219,285.993774 
	C287.005219,285.993774 286.997498,286.002899 286.992126,286.010284 
	C286.983643,301.052185 286.980499,316.086670 286.959839,331.597290 
	C283.207794,330.087677 279.473206,328.101929 275.400085,326.036560 
z"/>
<path fill="#006CBF" opacity="1.000000" stroke="none" 
	d="
M287.003082,285.525696 
	C283.343353,285.996124 279.681488,285.998505 275.571899,286.001984 
	C275.092957,250.957031 275.061768,215.910965 275.074951,180.390045 
	C278.771637,179.934296 282.423950,179.953430 286.534851,179.994400 
	C286.995941,215.030060 286.998444,250.043869 287.003082,285.525696 
z"/>
</svg>